<?xml version="1.0" encoding="UTF-8"?>
<svg width="500px" height="500px" viewBox="0 0 500 500" version="1.1" xmlns="http://www.w3.org/2000/svg" xmlns:xlink="http://www.w3.org/1999/xlink">
    <!-- Generator: Sketch 50.2 (55047) - http://www.bohemiancoding.com/sketch -->
    <title>Custom Preset 2</title>
    <desc>Created with Sketch.</desc>
    <defs></defs>
    <g id="Custom-Preset-2" stroke="none" stroke-width="1" fill="none" fill-rule="evenodd">
        <rect id="Rectangle" fill="#DA5A47" x="0" y="0" width="500" height="500" rx="8"></rect>
        <g id="React-icon" transform="translate(35.000000, 58.000000)" fill="#FFFFFF" fill-rule="nonzero">
            <path d="M431,192.043946 C431,163.479057 395.244395,136.408331 340.42499,119.620966 C353.075622,63.7216754 347.453119,19.2483406 322.678965,5.00984207 C316.96861,1.66994736 310.291887,0.0878919661 303.000204,0.0878919661 L303.000204,19.6878004 C307.041378,19.6878004 310.291887,20.4788281 313.015287,21.9729915 C324.963106,28.8285649 330.146351,54.9324788 326.105177,88.5072099 C325.13881,96.7690547 323.557481,105.470359 321.624745,114.347448 C304.40583,110.128634 285.605585,106.876631 265.838973,104.767224 C253.979005,88.5072099 241.67978,73.7413596 229.292703,60.8212406 C257.932328,34.1899748 284.814921,19.5999084 303.088055,19.5999084 L303.088055,0 C303.088055,0 303.088055,0 303.088055,0 C278.928863,0 247.302283,17.2268254 215.324297,47.1100938 C183.346311,17.4026093 151.719731,0.351567864 127.560538,0.351567864 L127.560538,19.9514763 C145.745821,19.9514763 172.716266,34.4536507 201.355891,60.9091325 C189.056665,73.8292515 176.75744,88.5072099 165.073176,104.767224 C145.218712,106.876631 126.418467,110.128634 109.199552,114.43534 C107.178965,105.646143 105.685487,97.1206226 104.631268,88.9466697 C100.502242,55.3719387 105.597636,29.2680247 117.457603,22.3245594 C120.093151,20.742504 123.519364,20.0393683 127.560538,20.0393683 L127.560538,0.439459831 C127.560538,0.439459831 127.560538,0.439459831 127.560538,0.439459831 C120.181003,0.439459831 113.50428,2.02151522 107.706074,5.36140993 C83.0197717,19.5999084 77.4851203,63.9853513 90.2236038,119.708858 C35.5799022,136.584115 0,163.566949 0,192.043946 C0,220.608835 35.7556054,247.679561 90.5750102,264.466926 C77.9243783,320.366217 83.5468814,364.839551 108.321035,379.07805 C114.03139,382.417945 120.708113,384 128.087648,384 C152.246841,384 183.87342,366.773175 215.851406,336.889906 C247.829393,366.597391 279.455972,383.648432 303.615165,383.648432 C310.9947,383.648432 317.671423,382.066377 323.469629,378.726482 C348.155932,364.487984 353.690583,320.102541 340.952099,264.379034 C395.420098,247.591669 431,220.520943 431,192.043946 Z M316.617203,133.420005 C313.366694,144.758068 309.32552,156.4477 304.757236,168.137331 C301.15532,161.105974 297.377701,154.074617 293.248675,147.043259 C289.207501,140.011902 284.902772,133.156329 280.598043,126.476539 C293.072972,128.322271 305.108642,130.607462 316.617203,133.420005 Z M276.381166,227.024949 C269.52874,238.890364 262.500611,250.140536 255.208928,260.59968 C242.119038,261.742275 228.853445,262.357519 215.5,262.357519 C202.234407,262.357519 188.968814,261.742275 175.966775,260.687572 C168.675092,250.228428 161.559111,239.066148 154.706686,227.288624 C148.029963,215.774777 141.968202,204.085145 136.433551,192.307622 C141.880351,180.530098 148.029963,168.752575 154.618834,157.238727 C161.47126,145.373312 168.499389,134.12314 175.791072,123.663996 C188.880962,122.521401 202.146555,121.906157 215.5,121.906157 C228.765593,121.906157 242.031186,122.521401 255.033225,123.576104 C262.324908,134.035248 269.440889,145.197528 276.293314,156.975051 C282.970037,168.488899 289.031798,180.178531 294.566449,191.956054 C289.031798,203.733577 282.970037,215.511101 276.381166,227.024949 Z M304.757236,215.598993 C309.501223,227.376516 313.542397,239.15404 316.880758,250.579995 C305.372197,253.392538 293.248675,255.765621 280.685895,257.611353 C284.990624,250.843671 289.295353,243.900206 293.336527,236.780957 C297.377701,229.749599 301.15532,222.63035 304.757236,215.598993 Z M215.675703,309.379721 C207.505503,300.942092 199.335304,291.537652 191.252956,281.254292 C199.1596,281.605859 207.241949,281.869535 215.412148,281.869535 C223.6702,281.869535 231.8404,281.693751 239.834896,281.254292 C231.928251,291.537652 223.758051,300.942092 215.675703,309.379721 Z M150.314105,257.611353 C137.839177,255.765621 125.803506,253.48043 114.294945,250.667887 C117.545455,239.329824 121.586629,227.640192 126.154912,215.950561 C129.756828,222.981918 133.534448,230.013275 137.663473,237.044633 C141.792499,244.07599 146.009376,250.931563 150.314105,257.611353 Z M215.236445,74.7081712 C223.406645,83.1458 231.576845,92.5502403 239.659193,102.8336 C231.752548,102.482033 223.6702,102.218357 215.5,102.218357 C207.241949,102.218357 199.071749,102.394141 191.077252,102.8336 C198.983897,92.5502403 207.154097,83.1458 215.236445,74.7081712 Z M150.226254,126.476539 C145.921525,133.244221 141.616796,140.187686 137.575622,147.306935 C133.534448,154.338293 129.756828,161.36965 126.154912,168.401007 C121.410925,156.623484 117.369751,144.84596 114.03139,133.420005 C125.539951,130.695354 137.663473,128.322271 150.226254,126.476539 Z M70.7205463,236.517281 C39.6210762,223.245594 19.5030575,205.842985 19.5030575,192.043946 C19.5030575,178.244907 39.6210762,160.754406 70.7205463,147.570611 C78.2757848,144.318608 86.5338361,141.418173 95.0554423,138.693523 C100.062984,155.920348 106.651855,173.850309 114.822055,192.21973 C106.739706,210.501259 100.238687,228.343328 95.3189971,245.482261 C86.6216877,242.75761 78.3636364,239.769284 70.7205463,236.517281 Z M117.984713,362.1149 C106.036894,355.259327 100.853649,329.155413 104.894823,295.580682 C105.86119,287.318837 107.442519,278.617533 109.375255,269.740444 C126.59417,273.959258 145.394415,277.211261 165.161027,279.320668 C177.020995,295.580682 189.32022,310.346532 201.707297,323.266651 C173.067672,349.897917 146.185079,364.487984 127.911945,364.487984 C123.958622,364.400092 120.620261,363.609064 117.984713,362.1149 Z M326.368732,295.141222 C330.497758,328.715953 325.402364,354.819867 313.542397,361.763333 C310.906849,363.345388 307.480636,364.048524 303.439462,364.048524 C285.254179,364.048524 258.283734,349.546349 229.644109,323.090867 C241.943335,310.170748 254.24256,295.49279 265.926824,279.232776 C285.781288,277.123369 304.581533,273.871366 321.800448,269.56466 C323.821035,278.441749 325.402364,286.967269 326.368732,295.141222 Z M360.191602,236.517281 C352.636364,239.769284 344.378312,242.669718 335.856706,245.394369 C330.849164,228.167544 324.260294,210.237583 316.090094,191.868162 C324.172442,173.586633 330.673461,155.744564 335.593151,138.605631 C344.290461,141.330282 352.548512,144.318608 360.279454,147.570611 C391.378924,160.842298 411.496943,178.244907 411.496943,192.043946 C411.409091,205.842985 391.291072,223.333486 360.191602,236.517281 Z" id="Shape"></path>
            <circle id="Oval" cx="215" cy="192" r="40"></circle>
        </g>
    </g>
</svg>